<svg width="92" height="160" xmlns="http://www.w3.org/2000/svg">
 <!-- Created with Method Draw - http://github.com/duopixel/Method-Draw/ -->

 <g>
  <title>background</title>
  <rect fill="#fff" id="canvas_background" height="162" width="94" y="-1" x="-1"/>
  <g display="none" overflow="visible" y="0" x="0" height="100%" width="100%" id="canvasGrid">
   <rect fill="url(#gridpattern)" stroke-width="0" y="0" x="0" height="100%" width="100%"/>
  </g>
 </g>
 <g>
  <title>Layer 1</title>
  <path id="svg_4" d="m73.592753,5.422005c-34.844447,0 -34.666669,55.288892 -34.666669,76.088893l0,0c0.177778,12.977779 -0.533333,66.133337 -16.000001,67.377782c-9.955556,0.711111 -8.177778,-11.555556 -16.533334,-7.466667c-7.111112,3.555556 3.733334,13.155556 11.911112,13.155556c35.022224,0.177778 34.844447,-55.111114 34.844447,-75.911116l0,0c-0.177778,-12.977779 0.533333,-66.133337 16.000001,-67.377782c9.955556,-0.711111 8.177778,11.555556 16.533334,7.466667c6.933334,-3.733334 -3.733334,-13.333334 -12.08889,-13.333334z"/>
 </g>
</svg>